<svg fill="none" height="64" viewBox="0 0 66 64" width="66" xmlns="http://www.w3.org/2000/svg"><g clip-rule="evenodd" fill-rule="evenodd"><path d="m.942383 30.3303v-30.33017793h30.215117v30.33017793zm8.079537-15.2426c0 4.568 2.57828 7.1562 7.12898 7.1562 4.5626 0 7.1409-2.5882 7.1409-7.1562s-2.5783-7.16809-7.1409-7.16809c-4.5507 0-7.12898 2.60009-7.12898 7.16809zm25.81888 48.9124v-30.3302h30.215v30.3302zm7.9726-15.1711c0 4.568 2.5783 7.1681 7.129 7.1681 4.5506 0 7.1408-2.6001 7.1408-7.1681s-2.5902-7.1562-7.1408-7.1562c-4.5507 0-7.129 2.5882-7.129 7.1562z" fill="#1e1919"/><path d="m34.8408 30.3303v-30.33017793h30.215v30.33017793zm7.9726-15.2784c0 4.568 2.5902 7.1681 7.1408 7.1681 4.5507 0 7.129-2.6001 7.129-7.1681s-2.5783-7.16807-7.129-7.16807c-4.5506 0-7.1408 2.60007-7.1408 7.16807zm-41.871017 48.9482v-30.3302h30.215117v30.3302zm7.972607-15.1711c0 4.568 2.57831 7.1681 7.12901 7.1681s7.1409-2.6001 7.1409-7.1681-2.5902-7.1562-7.1409-7.1562-7.12901 2.5882-7.12901 7.1562z" fill="#0061fe"/></g></svg>